# xmcd
# Copyright (C) 1995-1998 Ti Kan
#
# Track frame offsets:
#       150
#       19725
#       38642
#       55743
#       72966
#       95679
#       113530
#       125813
#       147317
#       163789
#       193208
#
# Disc length: 4375 seconds
#
# Revision: 0
# Processed by: cddbd v1.5.2PL0 Copyright (c) Steve Scherf et al.
# Submitted via: CD-Import v1.0
#
DISCID=9c11150b
DTITLE=Mgmt - Oracular Spectacular
DYEAR=2008
DGENRE=
TTITLE0=Time To Pretend
TTITLE1=Weekend Wars
TTITLE2=The Youth
TTITLE3=Electric Feel
TTITLE4=Kids
TTITLE5=4th Dimensional Transition
TTITLE6=Pieces Of What
TTITLE7=Of Moons, Birds and Monsters
TTITLE8=The Handshake
TTITLE9=Future Reflections
TTITLE10=Data Track
EXTD=
EXTT0=
EXTT1=
EXTT2=
EXTT3=
EXTT4=
EXTT5=
EXTT6=
EXTT7=
EXTT8=
EXTT9=
EXTT10=
PLAYORDER=
